# xmcd CD database file
#
# Track frame offsets:
#	150
#	7740
#	50175
#	67780
#	97485
#	128012
#	161412
#	173710
#	191597
#	206730
#
# Disc length: 2889 seconds
#
# Revision: 0
# Processed by: cddbd v1.4PL0 Copyright (c) Steve Scherf et al.
# Submitted via: CDex 1.50
#
DISCID=840b470a
DTITLE=Martin Seeliger - Many Moons no see
DYEAR=1994
DGENRE=Jazz
TTITLE0=Amber
TTITLE1=To a wild flower
TTITLE2=My reply
TTITLE3=The dance of the gentle giants
TTITLE4=not yesterday and not tomorrow
TTITLE5=many moons no see
TTITLE6=you made me cry
TTITLE7=hot rocks
TTITLE8=ten are flying south
TTITLE9=amber
EXTD=YEAR: 1994
EXTT0=
EXTT1=
EXTT2=
EXTT3=
EXTT4=
EXTT5=
EXTT6=
EXTT7=
EXTT8=
EXTT9=
PLAYORDER=
